<svg width="17" height="13" viewBox="0 0 17 13" fill="none" xmlns="http://www.w3.org/2000/svg">
<path d="M0 6.62517C0.884033 7.40236 1.7689 8.17914 2.65168 8.95716C4.02837 10.1706 5.40422 11.3857 6.78049 12.5999C6.82158 12.6364 6.86433 12.6708 6.92078 12.7184C7.13826 12.4736 7.35242 12.232 7.5782 11.9773C5.65242 10.2775 3.73245 8.58306 1.77678 6.85676C6.88135 6.85676 11.9407 6.85676 17 6.85676C17 6.52533 17 6.19391 17 5.86248C11.9432 5.86248 6.88591 5.86248 1.7772 5.86248C3.72788 4.14073 5.64619 2.44757 7.57737 0.742805C7.35864 0.495065 7.14448 0.252711 6.92119 0C6.85022 0.0608992 6.7834 0.116827 6.71824 0.174412C4.50068 2.13106 2.28313 4.08812 0.0655766 6.04518C0.0452404 6.06341 0.0219975 6.07832 0.000415802 6.09489C0 6.27179 0 6.44828 0 6.62517Z" fill="white"/>
</svg>
