<svg width="20" height="20" viewBox="0 0 20 20" fill="none" xmlns="http://www.w3.org/2000/svg">
<path d="M3.75001 0C2.58333 0 1.66669 0.91668 1.66669 2.08332V17.9166C1.66669 19.0833 2.58333 20 3.75001 20H18.3333V0H3.75001ZM16.6667 18.3333H3.75001C3.50001 18.3333 3.33333 18.1666 3.33333 17.9166V2.08332C3.33333 1.83332 3.50001 1.66664 3.75001 1.66664H16.6667V18.3333Z" fill="#454545"/>
<path d="M3.75001 0C2.58333 0 1.66669 0.91668 1.66669 2.08332V16.6666H6.66669V0H3.75001ZM5.00001 15H3.33333V2.08332C3.33333 1.83332 3.50001 1.66664 3.75001 1.66664H5.00001V15Z" fill="#454545"/>
<path d="M1.66669 15V17.9167C1.66669 19.0833 2.58333 20 3.75001 20H18.3333V15H1.66669ZM16.6667 18.3333H3.75001C3.50001 18.3333 3.33333 18.1666 3.33333 17.9166V16.6666H16.6666V18.3333H16.6667Z" fill="#454545"/>
<path d="M14.75 7.66667C14.75 7.58335 15 6.41667 14.75 6.08335L14.25 5.41667C13.9167 4.91667 13.1667 4.99999 12.8333 5.49999C12.75 5.49999 12.6666 5.49999 12.5 5.49999C12.4167 5.49999 12.3333 5.49999 12.25 5.49999C12.0833 4.83331 11.25 4.83331 10.9167 5.41667C10.9167 5.41667 10.8334 5.41667 10.6667 5.41667C10.5 5.41667 10.6667 5.41667 10.3334 5.41667C10.0834 4.91667 9.33336 4.83335 8.91668 5.33335L8.5 5.99999C8.25 6.33331 8.25 6.74999 8.5 7.08331C8.5 7.08331 8.66668 7.33331 8.66668 7.49999C8.66668 7.49999 8.33336 8.49999 8.33336 9.24999C8.33336 9.38624 8.33336 9.46741 8.33336 9.58331C8.33336 9.60921 8.33336 9.63624 8.33336 9.66663C8.50004 10.5 9.00004 11.1666 9.75004 11.5833L10 11.6666C10.1667 11.75 10.4167 11.8333 10.5834 12C10.75 12.0833 12.5834 12.0833 12.6667 12C12.8334 11.9166 13.0834 11.75 13.1667 11.75L13.4167 11.6666C14.1667 11.25 14.9167 9.66663 14.9167 9.66663C14.9167 9.66663 15 9.41667 15 9.24999C15 8.49999 14.9167 7.99999 14.75 7.66667ZM13.1667 9.33331C13.0834 9.74999 12.8334 9.99999 12.5834 10.1666L11.6667 10.6666C11.5834 10.6666 11 10.25 10.75 10.1666L10.5833 10.0833C10.25 9.91663 10.0833 9.66663 10 9.24999C10 8.74999 10.0833 8.41667 10.0833 8.33331C10.1666 8.16663 10.1666 7.99999 10.25 7.83331C10.3333 7.58331 10.3333 7.33331 10.25 7.08331C10.4167 7.08331 10.5 7.08331 10.6667 7.08331C11 7.08331 11.3334 6.99999 11.5834 6.91663C11.8334 6.99995 12.1667 7.08331 12.5 7.08331C12.6667 7.08331 12.8334 7.08331 12.9167 7.08331C12.9167 7.33331 12.9167 7.58331 12.9167 7.83331C12.9167 7.99999 13 8.16663 13.0834 8.33331C13.1667 8.41663 13.1667 8.74999 13.1667 9.24999V9.33331H13.1667Z" fill="#454545"/>
</svg>
