<svg width="20" height="23" viewBox="0 0 20 23" fill="none" xmlns="http://www.w3.org/2000/svg">
<path d="M0 8.21389C0.0497849 7.85047 0.0859034 7.48324 0.151795 7.12361C0.546658 4.9675 1.52381 3.20686 3.08081 1.85257C4.2449 0.839427 5.56762 0.236975 7.0353 0.0566199C8.76313 -0.155786 10.385 0.229913 11.8879 1.20557C13.3912 2.18177 14.4879 3.56975 15.182 5.3407C15.7618 6.8194 15.9434 8.36709 15.7506 9.9691C15.5637 11.5249 15.0346 12.9194 14.1809 14.1651C14.1458 14.2161 14.114 14.2705 14.0706 14.34C14.1248 14.4036 14.176 14.4666 14.2297 14.5263C16.042 16.5439 17.8547 18.561 19.667 20.5786C20.0248 20.9767 20.1097 21.4445 19.8461 21.8226C19.7192 22.0046 19.5035 22.1105 19.3283 22.2512C19.2111 22.2512 19.094 22.2512 18.9768 22.2512C18.766 22.0773 18.5327 21.929 18.3487 21.7253C16.5803 19.7713 14.8208 17.8075 13.0583 15.8469C13.0007 15.7828 12.9402 15.7209 12.8806 15.6574C12.7825 15.7378 12.7054 15.804 12.6259 15.8665C10.3314 17.6809 7.83625 18.1416 5.19374 17.0535C2.53269 15.9583 0.883927 13.793 0.198164 10.7307C0.100058 10.2918 0.0644276 9.83546 0 9.38729C0 8.99616 0 8.60503 0 8.21389ZM7.91288 15.7627C11.3427 15.7633 14.1692 12.6321 14.1584 8.80928C14.1477 4.9273 11.3402 1.86615 7.91483 1.86017C4.47772 1.85365 1.67024 4.97945 1.67024 8.80765C1.67024 12.6326 4.47918 15.7622 7.91288 15.7627Z" fill="white"/>
</svg>
