<svg width="20" height="20" viewBox="0 0 20 20" fill="none" xmlns="http://www.w3.org/2000/svg">
<g clip-path="url(#clip0_14_345)">
<path d="M19.9016 8.39909L18.677 6.6312C18.5038 6.37921 18.1573 6.31621 17.9053 6.48946L17.4958 6.77295C17.0076 5.21374 16.2201 4.0719 14.9326 3.06786L15.3421 2.78437C15.5941 2.61112 15.6571 2.26463 15.4838 2.01264L14.2632 0.240811C14.09 -0.0111823 13.7435 -0.0741806 13.4915 0.0990648L8.0382 3.86715C7.7862 4.0404 7.72321 4.38689 7.89645 4.63888L9.12098 6.40677C9.29423 6.65877 9.64072 6.72176 9.89271 6.54852L10.3022 6.26503C10.3691 6.47371 10.44 6.67845 10.5188 6.87139L0.702829 13.6595C-0.0374009 14.1713 -0.222458 15.1872 0.289403 15.9274C0.801264 16.6676 1.81711 16.8527 2.55734 16.3408L12.3733 9.55669C12.5268 9.70237 12.6883 9.84018 12.8615 9.97405L12.452 10.2575C12.2 10.4308 12.137 10.7773 12.3103 11.0293L13.5348 12.7972C13.708 13.0492 14.0545 13.1122 14.3065 12.9389L19.7598 9.17082C20.0118 8.99758 20.0748 8.65109 19.9016 8.39909ZM9.71553 5.32399L9.12492 4.46957L13.6647 1.33147L14.2553 2.18588L9.71553 5.32399ZM1.92342 15.4313C1.68718 15.5927 1.36431 15.5337 1.19894 15.3013C1.03751 15.0651 1.09657 14.7422 1.32888 14.5769L10.9991 7.89117C11.1763 8.19041 11.3692 8.4739 11.5897 8.74558L1.92342 15.4313ZM11.2629 5.60748L13.9719 3.73328C15.3421 4.72157 16.0902 5.80435 16.5351 7.43837L13.8262 9.31257C12.456 8.32035 11.7078 7.23756 11.2629 5.60748ZM14.1333 11.7104L13.5427 10.856L18.0825 7.71793L18.6731 8.57234L14.1333 11.7104Z" fill="black"/>
<path d="M19.4448 16.6676H18.4999V15.5061C18.4999 15.199 18.2518 14.9509 17.9447 14.9509H12.6331C12.326 14.9509 12.078 15.199 12.078 15.5061V16.6676H11.133C10.8259 16.6676 10.5778 16.9157 10.5778 17.2228V19.4435C10.5778 19.7506 10.8259 19.9987 11.133 19.9987H19.4448C19.752 19.9987 20 19.7506 20 19.4435V17.2228C20 16.9196 19.752 16.6676 19.4448 16.6676ZM18.8897 18.8923H11.6882V17.7819H12.6331C12.9403 17.7819 13.1883 17.5339 13.1883 17.2267V16.0652H17.3895V17.2267C17.3895 17.5339 17.6376 17.7819 17.9447 17.7819H18.8897V18.8923Z" fill="black"/>
</g>
<defs>
<clipPath id="clip0_14_345">
<rect width="20" height="20" fill="white"/>
</clipPath>
</defs>
</svg>
