<svg width="22" height="23" viewBox="0 0 22 23" fill="none" xmlns="http://www.w3.org/2000/svg">
<path d="M21.9123 12.0108L18.8353 5.66468C19.2411 5.78426 20.1509 6.09962 20.227 6.09962C20.4734 6.09962 20.7017 5.95099 20.7996 5.7046C20.9192 5.3893 20.7634 5.03773 20.448 4.91451C18.4112 4.13529 15.7836 3.62428 12.9893 3.46478C12.8045 2.79427 12.2826 2.25792 11.6194 2.05133V0.612484C11.6194 0.275436 11.3475 0 11.0069 0C10.6662 0 10.3908 0.271792 10.3908 0.612484V2.05492C9.73113 2.26151 9.21653 2.79427 9.03169 3.46114C6.23013 3.62058 3.59171 4.12801 1.56213 4.91086C1.24683 5.03045 1.09098 5.38566 1.21056 5.70095C1.3048 5.94376 1.53673 6.09238 1.78318 6.09238C1.85567 6.09238 2.76535 5.78068 3.17488 5.65745L0.0616128 12.0869C0.0579688 12.0941 0 12.3841 0 12.3913C0.108705 14.6347 1.94986 16.3925 4.19691 16.3925C6.41132 16.3925 8.22708 14.6891 8.38652 12.4928C8.39376 12.4493 8.34666 12.0869 8.29951 12.018L5.00146 5.21528C6.26635 4.95431 7.63994 4.77676 9.06785 4.69704C9.28168 5.30953 9.77093 5.78796 10.3907 5.98362V18.1466H7.7704C7.58556 18.1466 7.40795 18.2336 7.28837 18.375L5.18994 21.017C5.04132 21.1982 5.01598 21.452 5.1211 21.6622C5.22622 21.876 5.4364 22.0101 5.67197 22.0101H16.3382C16.3418 22.0101 16.3418 22.0101 16.3418 22.0101C16.6789 22.0101 16.9543 21.7382 16.9543 21.3976C16.9543 21.2273 16.8855 21.0714 16.7731 20.9591L14.7145 18.3641C14.5985 18.2155 14.421 18.1358 14.2325 18.1358H11.6158V5.97639C12.2391 5.78068 12.7321 5.30229 12.9459 4.68616C14.3666 4.76953 15.7401 4.94714 17.005 5.20441L13.6744 12.0796C13.6707 12.0868 13.6127 12.3768 13.6127 12.384C13.7214 14.6274 15.5626 16.3852 17.8096 16.3852C20.0241 16.3852 21.8398 14.6818 21.9993 12.4855C22.0065 12.4457 21.9593 12.0797 21.9123 12.0108ZM4.19691 15.1675C2.82331 15.1675 1.66355 14.2397 1.31927 12.9639H7.07096C6.73385 14.2397 5.5705 15.1675 4.19691 15.1675ZM6.80999 11.739H1.58747L4.20055 6.3533L6.80999 11.739ZM13.9425 19.3607L15.0733 20.7887H6.93686L8.06764 19.3607H13.9425ZM11.0069 4.85648C10.543 4.85648 10.1661 4.47957 10.1661 4.01566C10.1661 3.55174 10.543 3.17483 11.0069 3.17483C11.4708 3.17483 11.8477 3.55174 11.8477 4.01566C11.8477 4.47957 11.4708 4.85648 11.0069 4.85648ZM17.8096 6.3533L20.4227 11.739H15.1965L17.8096 6.3533ZM17.8096 15.1675C16.436 15.1675 15.2762 14.2397 14.9319 12.9639H20.6836C20.3429 14.2397 19.1832 15.1675 17.8096 15.1675Z" fill="#454545"/>
</svg>
